<svg xmlns="http://www.w3.org/2000/svg" width="24" height="24" viewBox="0 0 24 24" fill="none">
  <path d="M21 8H3C2.59 8 2.25 7.09333 2.25 6C2.25 4.90667 2.59 4 3 4H21C21.41 4 21.75 4.90667 21.75 6C21.75 7.09333 21.41 8 21 8Z" fill="#EBEBEB"/>
  <path d="M21 14H3C2.59 14 2.25 13.0933 2.25 12C2.25 10.9067 2.59 10 3 10H21C21.41 10 21.75 10.9067 21.75 12C21.75 13.0933 21.41 14 21 14Z" fill="#EBEBEB"/>
  <path d="M21 20H3C2.59 20 2.25 19.0933 2.25 18C2.25 16.9067 2.59 16 3 16H21C21.41 16 21.75 16.9067 21.75 18C21.75 19.0933 21.41 20 21 20Z" fill="#EBEBEB"/>
</svg>